{
  "accessors": [
    {
      "bufferView": 2,
      "componentType": 5126,
      "count": 65231,
      "max": [
        10.209118843078613,
        3.8864221572875977,
        5.6619791984558105
      ],
      "min": [
        -11.60395622253418,
        -3.9567136764526367,
        -7.4528350830078125
      ],
      "type": "VEC3"
    },
    {
      "bufferView": 2,
      "byteOffset": 782772,
      "componentType": 5126,
      "count": 65231,
      "max": [
        1.0,
        1.0,
        1.0
      ],
      "min": [
        -1.0,
        -1.0,
        -1.0
      ],
      "type": "VEC3"
    },
    {
      "bufferView": 3,
      "componentType": 5126,
      "count": 65231,
      "max": [
        1.0,
        1.0,
        1.0,
        1.0
      ],
      "min": [
        -1.0,
        -1.0,
        -1.0,
        -1.0
      ],
      "type": "VEC4"
    },
    {
      "bufferView": 1,
      "componentType": 5126,
      "count": 65231,
      "max": [
        0.9980338215827942,
        0.9980078935623169
      ],
      "min": [
        0.001966216368600726,
        0.001966216368600726
      ],
      "type": "VEC2"
    },
    {
      "bufferView": 1,
      "byteOffset": 521848,
      "componentType": 5126,
      "count": 65231,
      "max": [
        0.9980338215827942,
        0.9980078935623169
      ],
      "min": [
        0.001966216368600726,
        0.001966216368600726
      ],
      "type": "VEC2"
    },
    {
      "bufferView": 1,
      "byteOffset": 1043696,
      "componentType": 5126,
      "count": 65231,
      "max": [
        0.9980338215827942,
        0.9980078935623169
      ],
      "min": [
        0.001966216368600726,
        0.001966216368600726
      ],
      "type": "VEC2"
    },
    {
      "bufferView": 1,
      "byteOffset": 1565544,
      "componentType": 5126,
      "count": 65231,
      "max": [
        0.9980338215827942,
        0.9980078935623169
      ],
      "min": [
        0.001966216368600726,
        0.001966216368600726
      ],
      "type": "VEC2"
    },
    {
      "bufferView": 0,
      "componentType": 5125,
      "count": 176310,
      "type": "SCALAR"
    }
  ],
  "asset": {
    "extras": {
      "author": "Baptiste.Barbe (https://sketchfab.com/Baptiste.Barbe)",
      "license": "CC-BY-4.0 (http://creativecommons.org/licenses/by/4.0/)",
      "source": "https://sketchfab.com/3d-models/dangerous-toy-tank-7702919ae37448cd828a16a99497fd1a",
      "title": "Dangerous Toy Tank"
    },
    "generator": "Sketchfab-13.23.0",
    "version": "2.0"
  },
  "bufferViews": [
    {
      "buffer": 0,
      "byteLength": 705240,
      "name": "floatBufferViews",
      "target": 34963
    },
    {
      "buffer": 0,
      "byteLength": 2087392,
      "byteOffset": 705240,
      "byteStride": 8,
      "name": "floatBufferViews",
      "target": 34962
    },
    {
      "buffer": 0,
      "byteLength": 1565544,
      "byteOffset": 2792632,
      "byteStride": 12,
      "name": "floatBufferViews",
      "target": 34962
    },
    {
      "buffer": 0,
      "byteLength": 1043696,
      "byteOffset": 4358176,
      "byteStride": 16,
      "name": "floatBufferViews",
      "target": 34962
    }
  ],
  "buffers": [
    {
      "byteLength": 5401872,
      "uri": "scene.bin"
    }
  ],
  "images": [
    {
      "uri": "textures/Tank_baseColor.png"
    },
    {
      "uri": "textures/Tank_metallicRoughness.png"
    },
    {
      "uri": "textures/Tank_normal.png"
    }
  ],
  "materials": [
    {
      "alphaMode": "BLEND",
      "doubleSided": true,
      "name": "Tank",
      "normalTexture": {
        "index": 2
      },
      "occlusionTexture": {
        "index": 1
      },
      "pbrMetallicRoughness": {
        "baseColorTexture": {
          "index": 0
        },
        "metallicRoughnessTexture": {
          "index": 1
        }
      }
    }
  ],
  "meshes": [
    {
      "name": "Circle.008_Tank_0",
      "primitives": [
        {
          "attributes": {
            "NORMAL": 1,
            "POSITION": 0,
            "TANGENT": 2,
            "TEXCOORD_0": 3,
            "TEXCOORD_1": 4,
            "TEXCOORD_2": 5,
            "TEXCOORD_3": 6
          },
          "indices": 7,
          "material": 0,
          "mode": 4
        }
      ]
    }
  ],
  "nodes": [
    {
      "children": [
        1
      ],
      "matrix": [
        1.0,
        0.0,
        0.0,
        0.0,
        0.0,
        2.220446049250313e-16,
        -1.0,
        0.0,
        0.0,
        1.0,
        2.220446049250313e-16,
        0.0,
        0.0,
        0.0,
        0.0,
        1.0
      ],
      "name": "Sketchfab_model"
    },
    {
      "children": [
        2
      ],
      "matrix": [
        0.009999999776482582,
        0.0,
        0.0,
        0.0,
        0.0,
        0.0,
        0.009999999776482582,
        0.0,
        0.0,
        -0.009999999776482582,
        0.0,
        0.0,
        0.0,
        0.0,
        0.0,
        1.0
      ],
      "name": "51f9cc67f8c64f4ebfe134058faaf1a1.fbx"
    },
    {
      "children": [
        3
      ],
      "name": "RootNode"
    },
    {
      "children": [
        4
      ],
      "matrix": [
        100.0,
        0.0,
        0.0,
        0.0,
        -0.0,
        -1.629206793918314e-05,
        -99.99999999999868,
        0.0,
        0.0,
        99.99999999999868,
        -1.629206793918314e-05,
        0.0,
        -4961.3525390625,
        484.065673828125,
        -3.514573097229004,
        1.0
      ],
      "name": "Circle.008"
    },
    {
      "mesh": 0,
      "name": "Circle.008_Tank_0"
    }
  ],
  "samplers": [
    {
      "magFilter": 9729,
      "minFilter": 9987,
      "wrapS": 10497,
      "wrapT": 10497
    }
  ],
  "scene": 0,
  "scenes": [
    {
      "name": "Sketchfab_Scene",
      "nodes": [
        0
      ]
    }
  ],
  "textures": [
    {
      "sampler": 0,
      "source": 0
    },
    {
      "sampler": 0,
      "source": 1
    },
    {
      "sampler": 0,
      "source": 2
    }
  ]
}
